<svg width="21" height="20" viewBox="0 0 21 20" fill="none" xmlns="http://www.w3.org/2000/svg">
<path d="M13.6007 12.859L13.0719 12.3272H13.0719L13.6007 12.859ZM14.0562 12.4062L14.585 12.938H14.585L14.0562 12.4062ZM16.4728 12.0894L16.1146 12.7483L16.4728 12.0894ZM18.3833 13.128L18.0251 13.7869L18.3833 13.128ZM18.9217 16.383L19.4505 16.9148L18.9217 16.383ZM17.5011 17.7954L16.9723 17.2636L17.5011 17.7954ZM16.1763 18.4651L16.2459 19.2119H16.2459L16.1763 18.4651ZM6.31536 14.2266L6.84418 13.6947L6.31536 14.2266ZM1.50289 5.24561L0.754096 5.28816L0.754096 5.28816L1.50289 5.24561ZM7.97752 6.69738L8.50634 7.22922H8.50634L7.97752 6.69738ZM8.13424 4.04348L8.73464 3.59401L8.13424 4.04348ZM6.87326 2.35908L6.27286 2.80855V2.80855L6.87326 2.35908ZM3.76145 2.07483L4.29027 2.60667H4.29027L3.76145 2.07483ZM2.19185 3.63552L1.66303 3.10368H1.66303L2.19185 3.63552ZM9.56312 10.9972L10.0919 10.4654L9.56312 10.9972ZM14.1295 13.3909L14.585 12.938L13.5273 11.8743L13.0719 12.3272L14.1295 13.3909ZM16.1146 12.7483L18.0251 13.7869L18.7415 12.4691L16.831 11.4305L16.1146 12.7483ZM18.3929 15.8511L16.9723 17.2636L18.0299 18.3273L19.4505 16.9148L18.3929 15.8511ZM16.1067 17.7184C14.6568 17.8535 10.9056 17.7331 6.84418 13.6947L5.78654 14.7584C10.2186 19.1653 14.4369 19.3805 16.2459 19.2119L16.1067 17.7184ZM6.84418 13.6947C2.9728 9.84533 2.33151 6.60765 2.25168 5.20305L0.754096 5.28816C0.854565 7.05599 1.64863 10.644 5.78654 14.7584L6.84418 13.6947ZM8.21952 7.51441L8.50634 7.22922L7.4487 6.16555L7.16189 6.45073L8.21952 7.51441ZM8.73464 3.59401L7.47365 1.90961L6.27286 2.80855L7.53385 4.49296L8.73464 3.59401ZM3.23263 1.54299L1.66303 3.10368L2.72067 4.16736L4.29027 2.60667L3.23263 1.54299ZM7.6907 6.98257C7.16189 6.45073 7.16117 6.45144 7.16045 6.45216C7.16021 6.4524 7.15949 6.45313 7.159 6.45362C7.15802 6.45461 7.15702 6.45561 7.15601 6.45664C7.15398 6.45871 7.15188 6.46086 7.14972 6.4631C7.14539 6.46759 7.14081 6.47245 7.13599 6.47769C7.12634 6.48816 7.11575 6.50014 7.10441 6.51367C7.08174 6.54072 7.05605 6.57403 7.02905 6.61388C6.97492 6.69377 6.91594 6.7994 6.86589 6.93224C6.76376 7.20329 6.70901 7.5606 6.77765 8.00305C6.91189 8.86833 7.50782 10.0113 9.0343 11.5291L10.0919 10.4654C8.66342 9.04499 8.32314 8.18059 8.25992 7.77309C8.22983 7.57916 8.26104 7.48371 8.26956 7.46111C8.27483 7.44713 8.27733 7.4457 8.27087 7.45525C8.2677 7.45992 8.26238 7.46723 8.25412 7.47708C8.24999 7.48201 8.24512 7.48759 8.23939 7.49381C8.23653 7.49692 8.23345 7.50019 8.23014 7.50362C8.22849 7.50534 8.22678 7.50709 8.22501 7.50889C8.22413 7.50979 8.22323 7.5107 8.22231 7.51162C8.22185 7.51208 8.22116 7.51278 8.22093 7.51301C8.22023 7.51371 8.21952 7.51441 7.6907 6.98257ZM9.0343 11.5291C10.5613 13.0474 11.7096 13.6383 12.5763 13.7713C13.0192 13.8392 13.3763 13.785 13.6472 13.6841C13.78 13.6346 13.8858 13.5763 13.9658 13.5227C14.0058 13.4959 14.0392 13.4704 14.0663 13.4479C14.0799 13.4367 14.0919 13.4262 14.1024 13.4166C14.1077 13.4118 14.1126 13.4073 14.1171 13.403C14.1194 13.4008 14.1215 13.3987 14.1236 13.3967C14.1246 13.3957 14.1256 13.3947 14.1266 13.3937C14.1271 13.3932 14.1279 13.3925 14.1281 13.3923C14.1288 13.3916 14.1295 13.3909 13.6007 12.859C13.0719 12.3272 13.0726 12.3265 13.0733 12.3258C13.0735 12.3256 13.0742 12.3249 13.0747 12.3244C13.0756 12.3235 13.0765 12.3226 13.0774 12.3217C13.0793 12.32 13.081 12.3183 13.0827 12.3166C13.0862 12.3133 13.0895 12.3103 13.0926 12.3074C13.0988 12.3018 13.1044 12.2969 13.1094 12.2929C13.1192 12.2847 13.1265 12.2795 13.131 12.2764C13.1403 12.2702 13.1384 12.273 13.1236 12.2785C13.0991 12.2876 13.001 12.3189 12.8038 12.2886C12.3905 12.2253 11.52 11.8853 10.0919 10.4654L9.0343 11.5291ZM7.47365 1.90961C6.45434 0.548025 4.44996 0.33257 3.23263 1.54299L4.29027 2.60667C4.82195 2.078 5.76623 2.13181 6.27286 2.80855L7.47365 1.90961ZM2.25168 5.20305C2.23201 4.85694 2.39075 4.4954 2.72067 4.16736L1.66303 3.10368C1.12571 3.63795 0.703294 4.39425 0.754096 5.28816L2.25168 5.20305ZM16.9723 17.2636C16.6975 17.5369 16.4029 17.6908 16.1067 17.7184L16.2459 19.2119C16.9805 19.1434 17.5824 18.7723 18.0299 18.3273L16.9723 17.2636ZM8.50634 7.22922C9.49084 6.2503 9.56403 4.7019 8.73464 3.59401L7.53385 4.49295C7.93734 5.03193 7.8773 5.73938 7.4487 6.16555L8.50634 7.22922ZM18.0251 13.7869C18.8429 14.2315 18.9703 15.2769 18.3929 15.8511L19.4505 16.9148C20.7908 15.5821 20.3775 13.3584 18.7415 12.4691L18.0251 13.7869ZM14.585 12.938C14.969 12.5562 15.5871 12.4616 16.1146 12.7483L16.831 11.4305C15.7474 10.8414 14.4026 11.0041 13.5273 11.8743L14.585 12.938Z" fill="#1C274C"/>
</svg>
